<?xml version="1.0" encoding="UTF-8" standalone="no"?>
<!DOCTYPE svg PUBLIC "-//W3C//DTD SVG 1.1//EN"
 "http://www.w3.org/Graphics/SVG/1.1/DTD/svg11.dtd">
<!-- Generated by graphviz version 2.38.0 (20140413.2041)
 -->
<!-- Title: %3 Pages: 1 -->
<svg width="100%" height="auto"
 viewBox="0.00 0.00 3592.18 476.00" xmlns="http://www.w3.org/2000/svg" xmlns:xlink="http://www.w3.org/1999/xlink">
<g id="graph0" class="graph" transform="scale(1 1) rotate(0) translate(4 472)">
<title>%3</title>
<polygon fill="white" stroke="none" points="-4,4 -4,-472 3588.18,-472 3588.18,4 -4,4"/>
<!-- [root] aws_instance.blue_ec2 -->
<g id="node1" class="node"><title>[root] aws_instance.blue_ec2</title>
<polygon fill="none" stroke="black" points="2694.93,-252 2550.58,-252 2550.58,-216 2694.93,-216 2694.93,-252"/>
<text text-anchor="middle" x="2622.75" y="-229.8" font-family="Times,serif" font-size="14.00">aws_instance.blue_ec2</text>
</g>
<!-- [root] aws_key_pair.auth -->
<g id="node4" class="node"><title>[root] aws_key_pair.auth</title>
<polygon fill="none" stroke="black" points="3012.84,-180 2892.66,-180 2892.66,-144 3012.84,-144 3012.84,-180"/>
<text text-anchor="middle" x="2952.75" y="-157.8" font-family="Times,serif" font-size="14.00">aws_key_pair.auth</text>
</g>
<!-- [root] aws_instance.blue_ec2&#45;&gt;[root] aws_key_pair.auth -->
<g id="edge1" class="edge"><title>[root] aws_instance.blue_ec2&#45;&gt;[root] aws_key_pair.auth</title>
<path fill="none" stroke="black" d="M2695.17,-217.766C2698.07,-217.167 2700.94,-216.577 2703.75,-216 2780.56,-200.261 2802.44,-197.93 2882.52,-180.228"/>
<polygon fill="black" stroke="black" points="2883.58,-183.578 2892.58,-177.991 2882.06,-176.745 2883.58,-183.578"/>
</g>
<!-- [root] aws_security_group.blue_green_instance_security_group -->
<g id="node13" class="node"><title>[root] aws_security_group.blue_green_instance_security_group</title>
<polygon fill="none" stroke="black" points="2875.05,-180 2536.46,-180 2536.46,-144 2875.05,-144 2875.05,-180"/>
<text text-anchor="middle" x="2705.75" y="-157.8" font-family="Times,serif" font-size="14.00">aws_security_group.blue_green_instance_security_group</text>
</g>
<!-- [root] aws_instance.blue_ec2&#45;&gt;[root] aws_security_group.blue_green_instance_security_group -->
<g id="edge2" class="edge"><title>[root] aws_instance.blue_ec2&#45;&gt;[root] aws_security_group.blue_green_instance_security_group</title>
<path fill="none" stroke="black" d="M2643.27,-215.697C2653.62,-206.965 2666.34,-196.24 2677.59,-186.75"/>
<polygon fill="black" stroke="black" points="2680.09,-189.227 2685.47,-180.104 2675.57,-183.876 2680.09,-189.227"/>
</g>
<!-- [root] aws_subnet.blue_subnet -->
<g id="node14" class="node"><title>[root] aws_subnet.blue_subnet</title>
<polygon fill="none" stroke="black" points="2109.23,-180 1956.27,-180 1956.27,-144 2109.23,-144 2109.23,-180"/>
<text text-anchor="middle" x="2032.75" y="-157.8" font-family="Times,serif" font-size="14.00">aws_subnet.blue_subnet</text>
</g>
<!-- [root] aws_instance.blue_ec2&#45;&gt;[root] aws_subnet.blue_subnet -->
<g id="edge3" class="edge"><title>[root] aws_instance.blue_ec2&#45;&gt;[root] aws_subnet.blue_subnet</title>
<path fill="none" stroke="black" d="M2550.57,-227.544C2454.33,-219.798 2278.54,-204.001 2119.14,-180.137"/>
<polygon fill="black" stroke="black" points="2119.56,-176.661 2109.15,-178.627 2118.52,-183.582 2119.56,-176.661"/>
</g>
<!-- [root] var.private_key_path -->
<g id="node18" class="node"><title>[root] var.private_key_path</title>
<ellipse fill="none" stroke="black" cx="2411.75" cy="-162" rx="106.725" ry="18"/>
<text text-anchor="middle" x="2411.75" y="-157.8" font-family="Times,serif" font-size="14.00">[root] var.private_key_path</text>
</g>
<!-- [root] aws_instance.blue_ec2&#45;&gt;[root] var.private_key_path -->
<g id="edge4" class="edge"><title>[root] aws_instance.blue_ec2&#45;&gt;[root] var.private_key_path</title>
<path fill="none" stroke="black" d="M2571.41,-215.966C2540.01,-205.55 2499.84,-192.222 2467.64,-181.541"/>
<polygon fill="black" stroke="black" points="2468.52,-178.145 2457.93,-178.318 2466.32,-184.789 2468.52,-178.145"/>
</g>
<!-- [root] aws_instance.green_ec2 -->
<g id="node2" class="node"><title>[root] aws_instance.green_ec2</title>
<polygon fill="none" stroke="black" points="2864.41,-252 2713.09,-252 2713.09,-216 2864.41,-216 2864.41,-252"/>
<text text-anchor="middle" x="2788.75" y="-229.8" font-family="Times,serif" font-size="14.00">aws_instance.green_ec2</text>
</g>
<!-- [root] aws_instance.green_ec2&#45;&gt;[root] aws_key_pair.auth -->
<g id="edge5" class="edge"><title>[root] aws_instance.green_ec2&#45;&gt;[root] aws_key_pair.auth</title>
<path fill="none" stroke="black" d="M2828.87,-215.876C2851.39,-206.264 2879.67,-194.193 2903.52,-184.013"/>
<polygon fill="black" stroke="black" points="2904.94,-187.213 2912.77,-180.068 2902.19,-180.775 2904.94,-187.213"/>
</g>
<!-- [root] aws_instance.green_ec2&#45;&gt;[root] aws_security_group.blue_green_instance_security_group -->
<g id="edge6" class="edge"><title>[root] aws_instance.green_ec2&#45;&gt;[root] aws_security_group.blue_green_instance_security_group</title>
<path fill="none" stroke="black" d="M2768.24,-215.697C2757.88,-206.965 2745.17,-196.24 2733.91,-186.75"/>
<polygon fill="black" stroke="black" points="2735.94,-183.876 2726.03,-180.104 2731.42,-189.227 2735.94,-183.876"/>
</g>
<!-- [root] aws_subnet.green_subnet -->
<g id="node15" class="node"><title>[root] aws_subnet.green_subnet</title>
<polygon fill="none" stroke="black" points="2286.72,-180 2126.79,-180 2126.79,-144 2286.72,-144 2286.72,-180"/>
<text text-anchor="middle" x="2206.75" y="-157.8" font-family="Times,serif" font-size="14.00">aws_subnet.green_subnet</text>
</g>
<!-- [root] aws_instance.green_ec2&#45;&gt;[root] aws_subnet.green_subnet -->
<g id="edge7" class="edge"><title>[root] aws_instance.green_ec2&#45;&gt;[root] aws_subnet.green_subnet</title>
<path fill="none" stroke="black" d="M2712.83,-217.386C2709.77,-216.893 2706.73,-216.428 2703.75,-216 2526.82,-190.579 2477.81,-204.58 2296.87,-180.066"/>
<polygon fill="black" stroke="black" points="2297.13,-176.569 2286.74,-178.673 2296.17,-183.503 2297.13,-176.569"/>
</g>
<!-- [root] aws_instance.green_ec2&#45;&gt;[root] var.private_key_path -->
<g id="edge8" class="edge"><title>[root] aws_instance.green_ec2&#45;&gt;[root] var.private_key_path</title>
<path fill="none" stroke="black" d="M2712.77,-217.733C2709.72,-217.143 2706.71,-216.564 2703.75,-216 2632.47,-202.403 2551.23,-187.724 2492.57,-177.27"/>
<polygon fill="black" stroke="black" points="2493.08,-173.806 2482.62,-175.499 2491.86,-180.697 2493.08,-173.806"/>
</g>
<!-- [root] aws_internet_gateway.blue_green_internet_gateway -->
<g id="node3" class="node"><title>[root] aws_internet_gateway.blue_green_internet_gateway</title>
<polygon fill="none" stroke="black" points="490.612,-252 180.896,-252 180.896,-216 490.612,-216 490.612,-252"/>
<text text-anchor="middle" x="335.754" y="-229.8" font-family="Times,serif" font-size="14.00">aws_internet_gateway.blue_green_internet_gateway</text>
</g>
<!-- [root] aws_vpc.blue_green_vpc -->
<g id="node16" class="node"><title>[root] aws_vpc.blue_green_vpc</title>
<polygon fill="none" stroke="black" points="1986.65,-108 1828.86,-108 1828.86,-72 1986.65,-72 1986.65,-108"/>
<text text-anchor="middle" x="1907.75" y="-85.8" font-family="Times,serif" font-size="14.00">aws_vpc.blue_green_vpc</text>
</g>
<!-- [root] aws_internet_gateway.blue_green_internet_gateway&#45;&gt;[root] aws_vpc.blue_green_vpc -->
<g id="edge9" class="edge"><title>[root] aws_internet_gateway.blue_green_internet_gateway&#45;&gt;[root] aws_vpc.blue_green_vpc</title>
<path fill="none" stroke="black" d="M490.483,-217.003C671.314,-198.504 979.605,-167.576 1244.75,-144 1449.97,-125.753 1691.18,-107.196 1818.53,-97.625"/>
<polygon fill="black" stroke="black" points="1818.91,-101.106 1828.62,-96.8674 1818.39,-94.1258 1818.91,-101.106"/>
</g>
<!-- [root] provider.aws -->
<g id="node17" class="node"><title>[root] provider.aws</title>
<polygon fill="none" stroke="black" points="2193.75,-36 2115.15,-18 2193.75,-3.55271e-15 2272.36,-18 2193.75,-36"/>
<text text-anchor="middle" x="2193.75" y="-13.8" font-family="Times,serif" font-size="14.00">provider.aws</text>
</g>
<!-- [root] aws_key_pair.auth&#45;&gt;[root] provider.aws -->
<g id="edge10" class="edge"><title>[root] aws_key_pair.auth&#45;&gt;[root] provider.aws</title>
<path fill="none" stroke="black" d="M2892.59,-145.944C2889.61,-145.27 2886.65,-144.618 2883.75,-144 2648.28,-93.7148 2364.8,-46.5182 2248.05,-27.6521"/>
<polygon fill="black" stroke="black" points="2248.37,-24.1585 2237.94,-26.022 2247.25,-31.0692 2248.37,-24.1585"/>
</g>
<!-- [root] var.public_key_path -->
<g id="node19" class="node"><title>[root] var.public_key_path</title>
<ellipse fill="none" stroke="black" cx="2952.75" cy="-90" rx="104.328" ry="18"/>
<text text-anchor="middle" x="2952.75" y="-85.8" font-family="Times,serif" font-size="14.00">[root] var.public_key_path</text>
</g>
<!-- [root] aws_key_pair.auth&#45;&gt;[root] var.public_key_path -->
<g id="edge11" class="edge"><title>[root] aws_key_pair.auth&#45;&gt;[root] var.public_key_path</title>
<path fill="none" stroke="black" d="M2952.75,-143.697C2952.75,-135.983 2952.75,-126.712 2952.75,-118.112"/>
<polygon fill="black" stroke="black" points="2956.25,-118.104 2952.75,-108.104 2949.25,-118.104 2956.25,-118.104"/>
</g>
<!-- [root] aws_lb.blue_green_elb -->
<g id="node5" class="node"><title>[root] aws_lb.blue_green_elb</title>
<polygon fill="none" stroke="black" points="2192.71,-252 2046.79,-252 2046.79,-216 2192.71,-216 2192.71,-252"/>
<text text-anchor="middle" x="2119.75" y="-229.8" font-family="Times,serif" font-size="14.00">aws_lb.blue_green_elb</text>
</g>
<!-- [root] aws_security_group.blue_green_elb_security_group -->
<g id="node12" class="node"><title>[root] aws_security_group.blue_green_elb_security_group</title>
<polygon fill="none" stroke="black" points="1938.28,-180 1629.23,-180 1629.23,-144 1938.28,-144 1938.28,-180"/>
<text text-anchor="middle" x="1783.75" y="-157.8" font-family="Times,serif" font-size="14.00">aws_security_group.blue_green_elb_security_group</text>
</g>
<!-- [root] aws_lb.blue_green_elb&#45;&gt;[root] aws_security_group.blue_green_elb_security_group -->
<g id="edge12" class="edge"><title>[root] aws_lb.blue_green_elb&#45;&gt;[root] aws_security_group.blue_green_elb_security_group</title>
<path fill="none" stroke="black" d="M2046.85,-217.811C1996.52,-207.325 1929.21,-193.303 1875.27,-182.066"/>
<polygon fill="black" stroke="black" points="1875.87,-178.615 1865.36,-180.002 1874.44,-185.468 1875.87,-178.615"/>
</g>
<!-- [root] aws_lb.blue_green_elb&#45;&gt;[root] aws_subnet.blue_subnet -->
<g id="edge13" class="edge"><title>[root] aws_lb.blue_green_elb&#45;&gt;[root] aws_subnet.blue_subnet</title>
<path fill="none" stroke="black" d="M2098.25,-215.697C2087.29,-206.881 2073.81,-196.032 2061.93,-186.474"/>
<polygon fill="black" stroke="black" points="2064,-183.646 2054.01,-180.104 2059.61,-189.1 2064,-183.646"/>
</g>
<!-- [root] aws_lb.blue_green_elb&#45;&gt;[root] aws_subnet.green_subnet -->
<g id="edge14" class="edge"><title>[root] aws_lb.blue_green_elb&#45;&gt;[root] aws_subnet.green_subnet</title>
<path fill="none" stroke="black" d="M2141.26,-215.697C2152.22,-206.881 2165.7,-196.032 2177.58,-186.474"/>
<polygon fill="black" stroke="black" points="2179.9,-189.1 2185.5,-180.104 2175.51,-183.646 2179.9,-189.1"/>
</g>
<!-- [root] aws_lb_listener.blue_green_elb_listener -->
<g id="node6" class="node"><title>[root] aws_lb_listener.blue_green_elb_listener</title>
<polygon fill="none" stroke="black" points="1541.36,-324 1300.15,-324 1300.15,-288 1541.36,-288 1541.36,-324"/>
<text text-anchor="middle" x="1420.75" y="-301.8" font-family="Times,serif" font-size="14.00">aws_lb_listener.blue_green_elb_listener</text>
</g>
<!-- [root] aws_lb_listener.blue_green_elb_listener&#45;&gt;[root] aws_lb.blue_green_elb -->
<g id="edge15" class="edge"><title>[root] aws_lb_listener.blue_green_elb_listener&#45;&gt;[root] aws_lb.blue_green_elb</title>
<path fill="none" stroke="black" d="M1541.59,-288.933C1544.34,-288.614 1547.06,-288.303 1549.75,-288 1722.63,-268.579 1925.57,-250.939 2036.65,-241.723"/>
<polygon fill="black" stroke="black" points="2037.1,-245.198 2046.78,-240.885 2036.53,-238.221 2037.1,-245.198"/>
</g>
<!-- [root] aws_lb_target_group.green_elb_target_group -->
<g id="node8" class="node"><title>[root] aws_lb_target_group.green_elb_target_group</title>
<polygon fill="none" stroke="black" points="1601.18,-252 1330.33,-252 1330.33,-216 1601.18,-216 1601.18,-252"/>
<text text-anchor="middle" x="1465.75" y="-229.8" font-family="Times,serif" font-size="14.00">aws_lb_target_group.green_elb_target_group</text>
</g>
<!-- [root] aws_lb_listener.blue_green_elb_listener&#45;&gt;[root] aws_lb_target_group.green_elb_target_group -->
<g id="edge16" class="edge"><title>[root] aws_lb_listener.blue_green_elb_listener&#45;&gt;[root] aws_lb_target_group.green_elb_target_group</title>
<path fill="none" stroke="black" d="M1431.88,-287.697C1437.11,-279.559 1443.45,-269.689 1449.23,-260.701"/>
<polygon fill="black" stroke="black" points="1452.29,-262.409 1454.76,-252.104 1446.41,-258.623 1452.29,-262.409"/>
</g>
<!-- [root] aws_lb_target_group.blue_elb_target_group -->
<g id="node7" class="node"><title>[root] aws_lb_target_group.blue_elb_target_group</title>
<polygon fill="none" stroke="black" points="973.693,-252 709.814,-252 709.814,-216 973.693,-216 973.693,-252"/>
<text text-anchor="middle" x="841.754" y="-229.8" font-family="Times,serif" font-size="14.00">aws_lb_target_group.blue_elb_target_group</text>
</g>
<!-- [root] aws_lb_target_group.blue_elb_target_group&#45;&gt;[root] aws_vpc.blue_green_vpc -->
<g id="edge17" class="edge"><title>[root] aws_lb_target_group.blue_elb_target_group&#45;&gt;[root] aws_vpc.blue_green_vpc</title>
<path fill="none" stroke="black" d="M969.544,-215.977C1188.34,-186.831 1629.37,-128.082 1818.41,-102.901"/>
<polygon fill="black" stroke="black" points="1819.14,-106.335 1828.59,-101.545 1818.22,-99.3964 1819.14,-106.335"/>
</g>
<!-- [root] aws_lb_target_group.green_elb_target_group&#45;&gt;[root] aws_vpc.blue_green_vpc -->
<g id="edge18" class="edge"><title>[root] aws_lb_target_group.green_elb_target_group&#45;&gt;[root] aws_vpc.blue_green_vpc</title>
<path fill="none" stroke="black" d="M1489.28,-215.94C1518.44,-195.637 1570.35,-162.202 1619.75,-144 1684.11,-120.289 1760.61,-106.85 1818.59,-99.4418"/>
<polygon fill="black" stroke="black" points="1819.33,-102.877 1828.83,-98.1717 1818.47,-95.9298 1819.33,-102.877"/>
</g>
<!-- [root] aws_lb_target_group_attachment.blue_elb_target_group_attachment -->
<g id="node9" class="node"><title>[root] aws_lb_target_group_attachment.blue_elb_target_group_attachment</title>
<polygon fill="none" stroke="black" points="686.022,-324 285.486,-324 285.486,-288 686.022,-288 686.022,-324"/>
<text text-anchor="middle" x="485.754" y="-301.8" font-family="Times,serif" font-size="14.00">aws_lb_target_group_attachment.blue_elb_target_group_attachment</text>
</g>
<!-- [root] aws_lb_target_group_attachment.blue_elb_target_group_attachment&#45;&gt;[root] aws_instance.blue_ec2 -->
<g id="edge19" class="edge"><title>[root] aws_lb_target_group_attachment.blue_elb_target_group_attachment&#45;&gt;[root] aws_instance.blue_ec2</title>
<path fill="none" stroke="black" d="M686.243,-288.464C689.098,-288.303 691.936,-288.148 694.754,-288 1363.8,-252.828 1532.13,-273.516 2201.75,-252 2319.43,-248.219 2455.56,-242.472 2540.42,-238.726"/>
<polygon fill="black" stroke="black" points="2540.67,-242.218 2550.51,-238.28 2540.36,-235.225 2540.67,-242.218"/>
</g>
<!-- [root] aws_lb_target_group_attachment.blue_elb_target_group_attachment&#45;&gt;[root] aws_lb_target_group.blue_elb_target_group -->
<g id="edge20" class="edge"><title>[root] aws_lb_target_group_attachment.blue_elb_target_group_attachment&#45;&gt;[root] aws_lb_target_group.blue_elb_target_group</title>
<path fill="none" stroke="black" d="M572.386,-287.966C624.603,-277.698 691.212,-264.601 745.129,-253.999"/>
<polygon fill="black" stroke="black" points="745.905,-257.414 755.042,-252.05 744.555,-250.545 745.905,-257.414"/>
</g>
<!-- [root] aws_lb_target_group_attachment.green_elb_target_group_attachment -->
<g id="node10" class="node"><title>[root] aws_lb_target_group_attachment.green_elb_target_group_attachment</title>
<polygon fill="none" stroke="black" points="1966.51,-324 1559,-324 1559,-288 1966.51,-288 1966.51,-324"/>
<text text-anchor="middle" x="1762.75" y="-301.8" font-family="Times,serif" font-size="14.00">aws_lb_target_group_attachment.green_elb_target_group_attachment</text>
</g>
<!-- [root] aws_lb_target_group_attachment.green_elb_target_group_attachment&#45;&gt;[root] aws_instance.green_ec2 -->
<g id="edge21" class="edge"><title>[root] aws_lb_target_group_attachment.green_elb_target_group_attachment&#45;&gt;[root] aws_instance.green_ec2</title>
<path fill="none" stroke="black" d="M1966.52,-288.606C1969.62,-288.4 1972.7,-288.197 1975.75,-288 2295.72,-267.325 2380.53,-291.372 2702.75,-252.004"/>
<polygon fill="black" stroke="black" points="2703.35,-255.458 2712.84,-250.76 2702.49,-248.51 2703.35,-255.458"/>
</g>
<!-- [root] aws_lb_target_group_attachment.green_elb_target_group_attachment&#45;&gt;[root] aws_lb_target_group.green_elb_target_group -->
<g id="edge22" class="edge"><title>[root] aws_lb_target_group_attachment.green_elb_target_group_attachment&#45;&gt;[root] aws_lb_target_group.green_elb_target_group</title>
<path fill="none" stroke="black" d="M1690.48,-287.966C1647.46,-277.826 1592.73,-264.927 1548.05,-254.396"/>
<polygon fill="black" stroke="black" points="1548.63,-250.938 1538.09,-252.05 1547.03,-257.751 1548.63,-250.938"/>
</g>
<!-- [root] aws_route.blue_green_internet_access_route -->
<g id="node11" class="node"><title>[root] aws_route.blue_green_internet_access_route</title>
<polygon fill="none" stroke="black" points="267.262,-324 0.245642,-324 0.245642,-288 267.262,-288 267.262,-324"/>
<text text-anchor="middle" x="133.754" y="-301.8" font-family="Times,serif" font-size="14.00">aws_route.blue_green_internet_access_route</text>
</g>
<!-- [root] aws_route.blue_green_internet_access_route&#45;&gt;[root] aws_internet_gateway.blue_green_internet_gateway -->
<g id="edge23" class="edge"><title>[root] aws_route.blue_green_internet_access_route&#45;&gt;[root] aws_internet_gateway.blue_green_internet_gateway</title>
<path fill="none" stroke="black" d="M182.91,-287.966C211.257,-278.142 247.079,-265.729 276.917,-255.389"/>
<polygon fill="black" stroke="black" points="278.074,-258.692 286.377,-252.111 275.782,-252.078 278.074,-258.692"/>
</g>
<!-- [root] aws_security_group.blue_green_elb_security_group&#45;&gt;[root] aws_vpc.blue_green_vpc -->
<g id="edge24" class="edge"><title>[root] aws_security_group.blue_green_elb_security_group&#45;&gt;[root] aws_vpc.blue_green_vpc</title>
<path fill="none" stroke="black" d="M1814.09,-143.876C1830.45,-134.639 1850.84,-123.131 1868.41,-113.212"/>
<polygon fill="black" stroke="black" points="1870.32,-116.154 1877.3,-108.19 1866.87,-110.058 1870.32,-116.154"/>
</g>
<!-- [root] aws_security_group.blue_green_instance_security_group&#45;&gt;[root] aws_vpc.blue_green_vpc -->
<g id="edge25" class="edge"><title>[root] aws_security_group.blue_green_instance_security_group&#45;&gt;[root] aws_vpc.blue_green_vpc</title>
<path fill="none" stroke="black" d="M2536.17,-144.765C2533.34,-144.507 2530.54,-144.252 2527.75,-144 2339.05,-126.924 2117.9,-108.369 1997.33,-98.3765"/>
<polygon fill="black" stroke="black" points="1997.31,-94.8623 1987.05,-97.5249 1996.73,-101.838 1997.31,-94.8623"/>
</g>
<!-- [root] aws_subnet.blue_subnet&#45;&gt;[root] aws_vpc.blue_green_vpc -->
<g id="edge26" class="edge"><title>[root] aws_subnet.blue_subnet&#45;&gt;[root] aws_vpc.blue_green_vpc</title>
<path fill="none" stroke="black" d="M2002.18,-143.876C1985.68,-134.639 1965.13,-123.131 1947.42,-113.212"/>
<polygon fill="black" stroke="black" points="1948.89,-110.022 1938.45,-108.19 1945.46,-116.13 1948.89,-110.022"/>
</g>
<!-- [root] aws_subnet.green_subnet&#45;&gt;[root] aws_vpc.blue_green_vpc -->
<g id="edge27" class="edge"><title>[root] aws_subnet.green_subnet&#45;&gt;[root] aws_vpc.blue_green_vpc</title>
<path fill="none" stroke="black" d="M2133.99,-143.966C2090.59,-133.805 2035.35,-120.872 1990.32,-110.33"/>
<polygon fill="black" stroke="black" points="1991.12,-106.922 1980.58,-108.05 1989.52,-113.737 1991.12,-106.922"/>
</g>
<!-- [root] aws_vpc.blue_green_vpc&#45;&gt;[root] provider.aws -->
<g id="edge28" class="edge"><title>[root] aws_vpc.blue_green_vpc&#45;&gt;[root] provider.aws</title>
<path fill="none" stroke="black" d="M1977.35,-71.9656C2030.23,-59.0231 2101.48,-41.5838 2147.52,-30.3151"/>
<polygon fill="black" stroke="black" points="2148.64,-33.646 2157.52,-27.8689 2146.97,-26.8467 2148.64,-33.646"/>
</g>
<!-- [root] meta.count&#45;boundary (count boundary fixup) -->
<g id="node20" class="node"><title>[root] meta.count&#45;boundary (count boundary fixup)</title>
<ellipse fill="none" stroke="black" cx="1762.75" cy="-378" rx="191.693" ry="18"/>
<text text-anchor="middle" x="1762.75" y="-373.8" font-family="Times,serif" font-size="14.00">[root] meta.count&#45;boundary (count boundary fixup)</text>
</g>
<!-- [root] meta.count&#45;boundary (count boundary fixup)&#45;&gt;[root] aws_lb_listener.blue_green_elb_listener -->
<g id="edge29" class="edge"><title>[root] meta.count&#45;boundary (count boundary fixup)&#45;&gt;[root] aws_lb_listener.blue_green_elb_listener</title>
<path fill="none" stroke="black" d="M1686.85,-361.465C1635.81,-351.018 1568.2,-337.18 1513.9,-326.066"/>
<polygon fill="black" stroke="black" points="1514.43,-322.6 1503.93,-324.024 1513.02,-329.458 1514.43,-322.6"/>
</g>
<!-- [root] meta.count&#45;boundary (count boundary fixup)&#45;&gt;[root] aws_lb_target_group_attachment.blue_elb_target_group_attachment -->
<g id="edge30" class="edge"><title>[root] meta.count&#45;boundary (count boundary fixup)&#45;&gt;[root] aws_lb_target_group_attachment.blue_elb_target_group_attachment</title>
<path fill="none" stroke="black" d="M1621.4,-365.812C1592.42,-363.714 1562.11,-361.66 1533.75,-360 1164.53,-338.379 1068.99,-346.974 696.502,-324.094"/>
<polygon fill="black" stroke="black" points="696.444,-320.584 686.247,-323.461 696.012,-327.571 696.444,-320.584"/>
</g>
<!-- [root] meta.count&#45;boundary (count boundary fixup)&#45;&gt;[root] aws_lb_target_group_attachment.green_elb_target_group_attachment -->
<g id="edge31" class="edge"><title>[root] meta.count&#45;boundary (count boundary fixup)&#45;&gt;[root] aws_lb_target_group_attachment.green_elb_target_group_attachment</title>
<path fill="none" stroke="black" d="M1762.75,-359.697C1762.75,-351.983 1762.75,-342.712 1762.75,-334.112"/>
<polygon fill="black" stroke="black" points="1766.25,-334.104 1762.75,-324.104 1759.25,-334.104 1766.25,-334.104"/>
</g>
<!-- [root] meta.count&#45;boundary (count boundary fixup)&#45;&gt;[root] aws_route.blue_green_internet_access_route -->
<g id="edge32" class="edge"><title>[root] meta.count&#45;boundary (count boundary fixup)&#45;&gt;[root] aws_route.blue_green_internet_access_route</title>
<path fill="none" stroke="black" d="M1623.25,-365.627C1593.71,-363.505 1562.72,-361.489 1533.75,-360 979.002,-331.48 835.884,-364.621 277.637,-324.016"/>
<polygon fill="black" stroke="black" points="277.534,-320.499 267.305,-323.26 277.023,-327.481 277.534,-320.499"/>
</g>
<!-- [root] output.blue_ec2_ip -->
<g id="node21" class="node"><title>[root] output.blue_ec2_ip</title>
<ellipse fill="none" stroke="black" cx="2949.75" cy="-306" rx="100.469" ry="18"/>
<text text-anchor="middle" x="2949.75" y="-301.8" font-family="Times,serif" font-size="14.00">[root] output.blue_ec2_ip</text>
</g>
<!-- [root] meta.count&#45;boundary (count boundary fixup)&#45;&gt;[root] output.blue_ec2_ip -->
<g id="edge33" class="edge"><title>[root] meta.count&#45;boundary (count boundary fixup)&#45;&gt;[root] output.blue_ec2_ip</title>
<path fill="none" stroke="black" d="M1949.2,-373.804C2164.47,-368.73 2528.99,-355.886 2840.75,-324 2850.23,-323.031 2860.13,-321.797 2869.95,-320.438"/>
<polygon fill="black" stroke="black" points="2870.72,-323.863 2880.12,-318.981 2869.72,-316.934 2870.72,-323.863"/>
</g>
<!-- [root] output.blue_green_elb_arn -->
<g id="node22" class="node"><title>[root] output.blue_green_elb_arn</title>
<ellipse fill="none" stroke="black" cx="2400.75" cy="-306" rx="127.48" ry="18"/>
<text text-anchor="middle" x="2400.75" y="-301.8" font-family="Times,serif" font-size="14.00">[root] output.blue_green_elb_arn</text>
</g>
<!-- [root] meta.count&#45;boundary (count boundary fixup)&#45;&gt;[root] output.blue_green_elb_arn -->
<g id="edge34" class="edge"><title>[root] meta.count&#45;boundary (count boundary fixup)&#45;&gt;[root] output.blue_green_elb_arn</title>
<path fill="none" stroke="black" d="M1888.16,-364.368C1989.54,-354.003 2135.91,-338.693 2263.75,-324 2275.29,-322.675 2287.36,-321.242 2299.36,-319.79"/>
<polygon fill="black" stroke="black" points="2299.9,-323.251 2309.4,-318.569 2299.05,-316.302 2299.9,-323.251"/>
</g>
<!-- [root] output.blue_green_elb_domain -->
<g id="node23" class="node"><title>[root] output.blue_green_elb_domain</title>
<ellipse fill="none" stroke="black" cx="2688.75" cy="-306" rx="142.949" ry="18"/>
<text text-anchor="middle" x="2688.75" y="-301.8" font-family="Times,serif" font-size="14.00">[root] output.blue_green_elb_domain</text>
</g>
<!-- [root] meta.count&#45;boundary (count boundary fixup)&#45;&gt;[root] output.blue_green_elb_domain -->
<g id="edge35" class="edge"><title>[root] meta.count&#45;boundary (count boundary fixup)&#45;&gt;[root] output.blue_green_elb_domain</title>
<path fill="none" stroke="black" d="M1922.64,-368.065C2079.26,-358.837 2324.64,-343.115 2536.75,-324 2550.16,-322.792 2564.22,-321.395 2578.14,-319.933"/>
<polygon fill="black" stroke="black" points="2578.68,-323.396 2588.25,-318.858 2577.93,-316.435 2578.68,-323.396"/>
</g>
<!-- [root] output.blue_green_elb_name -->
<g id="node24" class="node"><title>[root] output.blue_green_elb_name</title>
<ellipse fill="none" stroke="black" cx="2119.75" cy="-306" rx="135.198" ry="18"/>
<text text-anchor="middle" x="2119.75" y="-301.8" font-family="Times,serif" font-size="14.00">[root] output.blue_green_elb_name</text>
</g>
<!-- [root] meta.count&#45;boundary (count boundary fixup)&#45;&gt;[root] output.blue_green_elb_name -->
<g id="edge36" class="edge"><title>[root] meta.count&#45;boundary (count boundary fixup)&#45;&gt;[root] output.blue_green_elb_name</title>
<path fill="none" stroke="black" d="M1841.54,-361.552C1899.58,-350.171 1978.33,-334.731 2037.23,-323.182"/>
<polygon fill="black" stroke="black" points="2038.1,-326.577 2047.24,-321.218 2036.76,-319.707 2038.1,-326.577"/>
</g>
<!-- [root] output.blue_target_group_arn -->
<g id="node25" class="node"><title>[root] output.blue_target_group_arn</title>
<ellipse fill="none" stroke="black" cx="841.754" cy="-306" rx="137.81" ry="18"/>
<text text-anchor="middle" x="841.754" y="-301.8" font-family="Times,serif" font-size="14.00">[root] output.blue_target_group_arn</text>
</g>
<!-- [root] meta.count&#45;boundary (count boundary fixup)&#45;&gt;[root] output.blue_target_group_arn -->
<g id="edge37" class="edge"><title>[root] meta.count&#45;boundary (count boundary fixup)&#45;&gt;[root] output.blue_target_group_arn</title>
<path fill="none" stroke="black" d="M1618.62,-366.12C1590.48,-364.047 1561.19,-361.925 1533.75,-360 1291.6,-343.014 1230.51,-345.95 988.754,-324 975.807,-322.824 962.235,-321.45 948.791,-320"/>
<polygon fill="black" stroke="black" points="948.869,-316.488 938.548,-318.879 948.108,-323.446 948.869,-316.488"/>
</g>
<!-- [root] output.green_ec2_ip -->
<g id="node26" class="node"><title>[root] output.green_ec2_ip</title>
<ellipse fill="none" stroke="black" cx="3172.75" cy="-306" rx="104.796" ry="18"/>
<text text-anchor="middle" x="3172.75" y="-301.8" font-family="Times,serif" font-size="14.00">[root] output.green_ec2_ip</text>
</g>
<!-- [root] meta.count&#45;boundary (count boundary fixup)&#45;&gt;[root] output.green_ec2_ip -->
<g id="edge38" class="edge"><title>[root] meta.count&#45;boundary (count boundary fixup)&#45;&gt;[root] output.green_ec2_ip</title>
<path fill="none" stroke="black" d="M1952.87,-375.592C2205.85,-372.262 2666.85,-361.126 3058.75,-324 3068.94,-323.035 3079.61,-321.776 3090.16,-320.381"/>
<polygon fill="black" stroke="black" points="3090.79,-323.828 3100.22,-319.006 3089.84,-316.892 3090.79,-323.828"/>
</g>
<!-- [root] output.green_target_group_arn -->
<g id="node27" class="node"><title>[root] output.green_target_group_arn</title>
<ellipse fill="none" stroke="black" cx="1139.75" cy="-306" rx="142.136" ry="18"/>
<text text-anchor="middle" x="1139.75" y="-301.8" font-family="Times,serif" font-size="14.00">[root] output.green_target_group_arn</text>
</g>
<!-- [root] meta.count&#45;boundary (count boundary fixup)&#45;&gt;[root] output.green_target_group_arn -->
<g id="edge39" class="edge"><title>[root] meta.count&#45;boundary (count boundary fixup)&#45;&gt;[root] output.green_target_group_arn</title>
<path fill="none" stroke="black" d="M1644.91,-363.778C1549.43,-353.061 1411.42,-337.567 1290.75,-324 1278.22,-322.591 1265.1,-321.115 1252.05,-319.646"/>
<polygon fill="black" stroke="black" points="1252.43,-316.167 1242.1,-318.526 1251.64,-323.123 1252.43,-316.167"/>
</g>
<!-- [root] output.blue_ec2_ip&#45;&gt;[root] aws_instance.blue_ec2 -->
<g id="edge40" class="edge"><title>[root] output.blue_ec2_ip&#45;&gt;[root] aws_instance.blue_ec2</title>
<path fill="none" stroke="black" d="M2887.86,-291.751C2836.07,-280.665 2761.75,-264.754 2704.97,-252.599"/>
<polygon fill="black" stroke="black" points="2705.45,-249.123 2694.94,-250.452 2703.98,-255.968 2705.45,-249.123"/>
</g>
<!-- [root] output.blue_green_elb_arn&#45;&gt;[root] aws_lb.blue_green_elb -->
<g id="edge41" class="edge"><title>[root] output.blue_green_elb_arn&#45;&gt;[root] aws_lb.blue_green_elb</title>
<path fill="none" stroke="black" d="M2340.82,-290.069C2299.15,-279.688 2243.19,-265.75 2198.01,-254.494"/>
<polygon fill="black" stroke="black" points="2198.79,-251.083 2188.25,-252.062 2197.1,-257.875 2198.79,-251.083"/>
</g>
<!-- [root] output.blue_green_elb_domain&#45;&gt;[root] aws_lb.blue_green_elb -->
<g id="edge42" class="edge"><title>[root] output.blue_green_elb_domain&#45;&gt;[root] aws_lb.blue_green_elb</title>
<path fill="none" stroke="black" d="M2590.62,-292.927C2481.09,-279.452 2305.76,-257.882 2202.78,-245.214"/>
<polygon fill="black" stroke="black" points="2203.09,-241.725 2192.73,-243.978 2202.23,-248.673 2203.09,-241.725"/>
</g>
<!-- [root] output.blue_green_elb_name&#45;&gt;[root] aws_lb.blue_green_elb -->
<g id="edge43" class="edge"><title>[root] output.blue_green_elb_name&#45;&gt;[root] aws_lb.blue_green_elb</title>
<path fill="none" stroke="black" d="M2119.75,-287.697C2119.75,-279.983 2119.75,-270.712 2119.75,-262.112"/>
<polygon fill="black" stroke="black" points="2123.25,-262.104 2119.75,-252.104 2116.25,-262.104 2123.25,-262.104"/>
</g>
<!-- [root] output.blue_target_group_arn&#45;&gt;[root] aws_lb_target_group.blue_elb_target_group -->
<g id="edge44" class="edge"><title>[root] output.blue_target_group_arn&#45;&gt;[root] aws_lb_target_group.blue_elb_target_group</title>
<path fill="none" stroke="black" d="M841.754,-287.697C841.754,-279.983 841.754,-270.712 841.754,-262.112"/>
<polygon fill="black" stroke="black" points="845.254,-262.104 841.754,-252.104 838.254,-262.104 845.254,-262.104"/>
</g>
<!-- [root] output.green_ec2_ip&#45;&gt;[root] aws_instance.green_ec2 -->
<g id="edge45" class="edge"><title>[root] output.green_ec2_ip&#45;&gt;[root] aws_instance.green_ec2</title>
<path fill="none" stroke="black" d="M3103.66,-292.405C3039.45,-280.699 2943.59,-263.226 2874.52,-250.634"/>
<polygon fill="black" stroke="black" points="2874.99,-247.163 2864.53,-248.813 2873.74,-254.049 2874.99,-247.163"/>
</g>
<!-- [root] output.green_target_group_arn&#45;&gt;[root] aws_lb_target_group.green_elb_target_group -->
<g id="edge46" class="edge"><title>[root] output.green_target_group_arn&#45;&gt;[root] aws_lb_target_group.green_elb_target_group</title>
<path fill="none" stroke="black" d="M1208.49,-290.24C1257.37,-279.746 1323.47,-265.552 1376.43,-254.18"/>
<polygon fill="black" stroke="black" points="1377.46,-257.539 1386.5,-252.018 1375.99,-250.695 1377.46,-257.539"/>
</g>
<!-- [root] provider.aws (close) -->
<g id="node28" class="node"><title>[root] provider.aws (close)</title>
<ellipse fill="none" stroke="black" cx="1420.75" cy="-378" rx="104.328" ry="18"/>
<text text-anchor="middle" x="1420.75" y="-373.8" font-family="Times,serif" font-size="14.00">[root] provider.aws (close)</text>
</g>
<!-- [root] provider.aws (close)&#45;&gt;[root] aws_lb_listener.blue_green_elb_listener -->
<g id="edge47" class="edge"><title>[root] provider.aws (close)&#45;&gt;[root] aws_lb_listener.blue_green_elb_listener</title>
<path fill="none" stroke="black" d="M1420.75,-359.697C1420.75,-351.983 1420.75,-342.712 1420.75,-334.112"/>
<polygon fill="black" stroke="black" points="1424.25,-334.104 1420.75,-324.104 1417.25,-334.104 1424.25,-334.104"/>
</g>
<!-- [root] provider.aws (close)&#45;&gt;[root] aws_lb_target_group_attachment.blue_elb_target_group_attachment -->
<g id="edge48" class="edge"><title>[root] provider.aws (close)&#45;&gt;[root] aws_lb_target_group_attachment.blue_elb_target_group_attachment</title>
<path fill="none" stroke="black" d="M1326.18,-370.347C1189.56,-360.68 928.761,-342.016 696.256,-324.113"/>
<polygon fill="black" stroke="black" points="696.495,-320.621 686.255,-323.342 695.956,-327.6 696.495,-320.621"/>
</g>
<!-- [root] provider.aws (close)&#45;&gt;[root] aws_lb_target_group_attachment.green_elb_target_group_attachment -->
<g id="edge49" class="edge"><title>[root] provider.aws (close)&#45;&gt;[root] aws_lb_target_group_attachment.green_elb_target_group_attachment</title>
<path fill="none" stroke="black" d="M1485.08,-363.834C1537.12,-353.182 1611.1,-338.04 1669.62,-326.063"/>
<polygon fill="black" stroke="black" points="1670.52,-329.452 1679.61,-324.017 1669.11,-322.594 1670.52,-329.452"/>
</g>
<!-- [root] provider.aws (close)&#45;&gt;[root] aws_route.blue_green_internet_access_route -->
<g id="edge50" class="edge"><title>[root] provider.aws (close)&#45;&gt;[root] aws_route.blue_green_internet_access_route</title>
<path fill="none" stroke="black" d="M1318.05,-374.721C1119.28,-369.768 667.974,-355.871 277.396,-324.013"/>
<polygon fill="black" stroke="black" points="277.564,-320.515 267.311,-323.185 276.991,-327.491 277.564,-320.515"/>
</g>
<!-- [root] provisioner.remote&#45;exec (close) -->
<g id="node29" class="node"><title>[root] provisioner.remote&#45;exec (close)</title>
<ellipse fill="none" stroke="black" cx="3439.75" cy="-306" rx="144.351" ry="18"/>
<text text-anchor="middle" x="3439.75" y="-301.8" font-family="Times,serif" font-size="14.00">[root] provisioner.remote&#45;exec (close)</text>
</g>
<!-- [root] provisioner.remote&#45;exec (close)&#45;&gt;[root] aws_instance.blue_ec2 -->
<g id="edge51" class="edge"><title>[root] provisioner.remote&#45;exec (close)&#45;&gt;[root] aws_instance.blue_ec2</title>
<path fill="none" stroke="black" d="M3339.01,-293.096C3321.6,-291.242 3303.66,-289.46 3286.75,-288 3031.4,-265.943 2962.76,-286.225 2705.12,-252.069"/>
<polygon fill="black" stroke="black" points="2705.46,-248.584 2695.09,-250.724 2704.53,-255.522 2705.46,-248.584"/>
</g>
<!-- [root] provisioner.remote&#45;exec (close)&#45;&gt;[root] aws_instance.green_ec2 -->
<g id="edge52" class="edge"><title>[root] provisioner.remote&#45;exec (close)&#45;&gt;[root] aws_instance.green_ec2</title>
<path fill="none" stroke="black" d="M3336.06,-293.413C3319.57,-291.589 3302.7,-289.734 3286.75,-288 3142.18,-272.275 2973.95,-254.474 2874.68,-244.022"/>
<polygon fill="black" stroke="black" points="2875.01,-240.538 2864.7,-242.972 2874.28,-247.5 2875.01,-240.538"/>
</g>
<!-- [root] root -->
<g id="node30" class="node"><title>[root] root</title>
<ellipse fill="none" stroke="black" cx="1762.75" cy="-450" rx="46.8976" ry="18"/>
<text text-anchor="middle" x="1762.75" y="-445.8" font-family="Times,serif" font-size="14.00">[root] root</text>
</g>
<!-- [root] root&#45;&gt;[root] meta.count&#45;boundary (count boundary fixup) -->
<g id="edge53" class="edge"><title>[root] root&#45;&gt;[root] meta.count&#45;boundary (count boundary fixup)</title>
<path fill="none" stroke="black" d="M1762.75,-431.697C1762.75,-423.983 1762.75,-414.712 1762.75,-406.112"/>
<polygon fill="black" stroke="black" points="1766.25,-406.104 1762.75,-396.104 1759.25,-406.104 1766.25,-406.104"/>
</g>
<!-- [root] root&#45;&gt;[root] provider.aws (close) -->
<g id="edge54" class="edge"><title>[root] root&#45;&gt;[root] provider.aws (close)</title>
<path fill="none" stroke="black" d="M1722.52,-440.764C1666.81,-429.363 1565.18,-408.561 1495.37,-394.273"/>
<polygon fill="black" stroke="black" points="1495.81,-390.791 1485.31,-392.214 1494.41,-397.648 1495.81,-390.791"/>
</g>
<!-- [root] root&#45;&gt;[root] provisioner.remote&#45;exec (close) -->
<g id="edge55" class="edge"><title>[root] root&#45;&gt;[root] provisioner.remote&#45;exec (close)</title>
<path fill="none" stroke="black" d="M1808.3,-445.746C1992.91,-432.455 2703.44,-380.317 3286.75,-324 3300.03,-322.719 3313.94,-321.291 3327.73,-319.823"/>
<polygon fill="black" stroke="black" points="3328.18,-323.295 3337.75,-318.748 3327.43,-316.335 3328.18,-323.295"/>
</g>
</g>
</svg>
